<svg xmlns="http://www.w3.org/2000/svg" xmlns:xlink="http://www.w3.org/1999/xlink" width="341" height="51" viewBox="0 0 341 51"><title>Logo</title><defs><path id="a" d="M0 50.363h340.25V.273H0z"/></defs><g fill="none" fill-rule="evenodd"><path fill="#003C16" d="M42.639.654L0 16.71v34.034h86.326V16.71z"/><g transform="translate(0 .381)"><path d="M21.608 40.353V19.31H32.39c3.76 0 6.528 1.617 6.528 5.462 0 1.911-1.072 3.812-3.063 4.51v.022c1.906.323 3.636 2.257 3.636 5.177 0 4.254-3.897 5.87-7.742 5.87H21.61zm4.39-12.721h5.286c1.452 0 2.694-.375 2.694-2.11 0-1.798-1.446-2.11-2.92-2.11h-5.06v4.22zm0 8.637h5.604c1.622 0 3.21-.317 3.21-2.336 0-2.025-1.56-2.343-3.352-2.343h-5.462v4.68zM42.19 40.353V19.31h10.787c3.76 0 6.534 1.617 6.534 5.462 0 1.911-1.072 3.812-3.068 4.51v.022c1.911.323 3.647 2.257 3.647 5.177 0 4.254-3.902 5.87-7.748 5.87H42.19zm4.396-12.721h5.286c1.446 0 2.688-.375 2.688-2.11 0-1.798-1.44-2.11-2.915-2.11h-5.06v4.22zm0 8.637h5.609c1.616 0 3.21-.317 3.21-2.336 0-2.025-1.56-2.343-3.352-2.343h-5.462c-.005 0-.005 4.68-.005 4.68zM67.315 32.804v7.549h-4.537V19.312h10.26c4.508 0 7.197 2.512 7.197 6.822 0 3.437-1.73 5.604-4.588 6.353l5.512 7.871h-5.32l-4.883-7.554h-3.641zm0-3.845h5.059c1.758 0 3.295-.72 3.295-2.78 0-2.047-1.417-2.857-3.295-2.857h-5.059v5.637z" fill="#FFF"/><path d="M99.75 34.31h-2.104v4.576h2.22c1.873 0 3.321-.347 3.321-2.259 0-1.854-1.64-2.317-3.437-2.317m-.096-5.812h-2.008v4.248h1.97c1.486 0 3.205-.406 3.205-2.337 0-1.95-2.067-1.911-3.167-1.911m.695 11.952h-4.692V26.934h4.576c3.495 0 4.634 1.37 4.634 3.321 0 1.97-1.043 2.742-2.471 3.147v.116c1.505.29 2.877 1.043 2.877 3.283 0 2.201-1.372 3.65-4.924 3.65M111.123 44.698h-2.008l1.758-4.248h-.83l-3.766-10.137h2.124l3.032 8.592 2.935-8.592h2.065zM121.937 31.471c-1.428 0-2.24.811-2.24 2.105 0 1.545.927 2.22 2.24 2.22 1.545 0 2.336-.656 2.336-2.22 0-1.351-.926-2.105-2.336-2.105m3.475-.038c.522.502.87 1.255.87 2.22 0 1.526-.85 3.573-4.364 3.573-.348 0-.715-.039-1.062-.097-.444.29-1.062.753-1.062 1.313 0 .309.27.502 1.004.599 1.989.212 6.623-.715 6.623 2.433 0 2.22-2.201 3.224-5.31 3.224-1.217 0-2.49-.058-3.881-.347v-1.468c1.1.193 2.49.406 3.553.406 2.066 0 3.59-.657 3.59-1.526 0-.965-1.485-.946-2.161-.965h-1.371c-2.009.02-3.978-.155-3.978-1.97 0-.965.502-1.621 1.448-2.298-.695-.386-1.64-1.158-1.64-2.857 0-2.395 1.834-3.572 4.266-3.572.618 0 1.043.057 1.41.115l4.286-.25v1.602c-.425 0-1.487-.077-2.22-.135M136.207 40.45v-6.468c0-1.082-.02-2.26-1.757-2.26-.985 0-2.433.56-3.302.927v7.801h-1.911V30.294h1.776v.927c2.008-.889 2.703-1.12 4.093-1.12 1.449 0 3.051.85 3.051 3.09v7.26h-1.95z" fill="#4F4C4C"/><mask id="b" fill="#fff"><use xlink:href="#a"/></mask><path d="M141.093 40.45h1.93V30.313h-1.93V40.45zm0-12.609h1.93v-1.873h-1.93v1.873zM153.007 40.45v-6.468c0-1.082-.02-2.26-1.758-2.26-.985 0-2.432.56-3.301.927v7.801h-1.912V30.294h1.777v.927c2.008-.889 2.703-1.12 4.093-1.12 1.448 0 3.05.85 3.05 3.09v7.26h-1.95zM161.735 31.471c-1.429 0-2.24.811-2.24 2.105 0 1.545.927 2.22 2.24 2.22 1.545 0 2.336-.656 2.336-2.22 0-1.351-.927-2.105-2.336-2.105m3.475-.038c.522.502.869 1.255.869 2.22 0 1.526-.85 3.573-4.363 3.573-.348 0-.715-.039-1.063-.097-.443.29-1.062.753-1.062 1.313 0 .309.27.502 1.004.599 1.99.212 6.624-.715 6.624 2.433 0 2.22-2.202 3.224-5.31 3.224-1.217 0-2.491-.058-3.882-.347v-1.468c1.101.193 2.491.406 3.553.406 2.067 0 3.592-.657 3.592-1.526 0-.965-1.487-.946-2.162-.965h-1.372c-2.008.02-3.977-.155-3.977-1.97 0-.965.501-1.621 1.448-2.298-.695-.386-1.641-1.158-1.641-2.857 0-2.395 1.834-3.572 4.267-3.572.618 0 1.043.057 1.41.115l4.286-.25v1.602c-.425 0-1.487-.077-2.22-.135M171.834 40.662c-1.197 0-2.336-.154-3.437-.367v-1.583c1.178.251 2.181.464 3.186.464 1.429 0 2.858-.348 2.858-1.487 0-1.371-2.067-1.487-3.07-1.738-1.41-.367-3.032-.907-3.032-2.877 0-2.317 2.143-2.973 4.17-2.973 1.449 0 2.472.173 3.264.29v1.525c-.946-.174-1.95-.328-2.916-.328-.985 0-2.568.154-2.568 1.351 0 2.201 6.16.618 6.16 4.5 0 1.987-1.622 3.223-4.615 3.223M178.612 35.275h5.155V33.77h-5.155zM195.14 31.51c-1.988 0-3.05 1.429-3.05 3.804 0 2.394 1.042 3.939 3.05 3.939s3.052-1.545 3.052-3.939c0-2.375-1.063-3.804-3.052-3.804m0 9.192c-3.262 0-5.116-2.221-5.116-5.388 0-3.244 1.873-5.252 5.116-5.252 3.225 0 5.117 2.008 5.117 5.252 0 3.147-2.124 5.388-5.117 5.388M206.572 31.471c-1.429 0-2.24.811-2.24 2.105 0 1.545.927 2.22 2.24 2.22 1.544 0 2.336-.656 2.336-2.22 0-1.351-.927-2.105-2.336-2.105m3.475-.038c.522.502.87 1.255.87 2.22 0 1.526-.85 3.573-4.365 3.573-.347 0-.714-.039-1.061-.097-.445.29-1.063.753-1.063 1.313 0 .309.27.502 1.005.599 1.988.212 6.623-.715 6.623 2.433 0 2.22-2.202 3.224-5.31 3.224-1.217 0-2.49-.058-3.881-.347v-1.468c1.1.193 2.49.406 3.552.406 2.066 0 3.592-.657 3.592-1.526 0-.965-1.487-.946-2.163-.965h-1.37c-2.009.02-3.978-.155-3.978-1.97 0-.965.502-1.621 1.448-2.298-.695-.386-1.641-1.158-1.641-2.857 0-2.395 1.834-3.572 4.267-3.572a8.37 8.37 0 0 1 1.41.115l4.286-.25v1.602c-.425 0-1.487-.077-2.22-.135M224.086 34.31h-2.105v4.576h2.22c1.873 0 3.322-.347 3.322-2.259 0-1.854-1.641-2.317-3.437-2.317m-.097-5.812h-2.008v4.248h1.97c1.486 0 3.205-.406 3.205-2.337 0-1.95-2.066-1.911-3.167-1.911m.695 11.952h-4.692V26.934h4.576c3.496 0 4.634 1.37 4.634 3.321 0 1.97-1.042 2.742-2.471 3.147v.116c1.506.29 2.877 1.043 2.877 3.283 0 2.201-1.371 3.65-4.924 3.65M236.54 31.51c-1.989 0-3.05 1.429-3.05 3.804 0 2.394 1.042 3.939 3.05 3.939 2.009 0 3.051-1.545 3.051-3.939 0-2.375-1.062-3.804-3.05-3.804m0 9.192c-3.264 0-5.117-2.221-5.117-5.388 0-3.244 1.873-5.252 5.116-5.252 3.225 0 5.117 2.008 5.117 5.252 0 3.147-2.124 5.388-5.117 5.388M244.13 40.45h1.93V25.968h-1.93zM249.053 40.45h1.93V30.313h-1.93V40.45zm0-12.609h1.93v-1.873h-1.93v1.873zM257.839 31.471c-1.429 0-2.24.811-2.24 2.105 0 1.545.927 2.22 2.24 2.22 1.544 0 2.336-.656 2.336-2.22 0-1.351-.927-2.105-2.336-2.105m3.475-.038c.522.502.87 1.255.87 2.22 0 1.526-.85 3.573-4.365 3.573-.347 0-.714-.039-1.061-.097-.445.29-1.063.753-1.063 1.313 0 .309.27.502 1.004.599 1.99.212 6.623-.715 6.623 2.433 0 2.22-2.201 3.224-5.31 3.224-1.216 0-2.49-.058-3.88-.347v-1.468c1.1.193 2.49.406 3.552.406 2.066 0 3.592-.657 3.592-1.526 0-.965-1.487-.946-2.163-.965h-1.37c-2.009.02-3.978-.155-3.978-1.97 0-.965.502-1.621 1.448-2.298-.695-.386-1.641-1.158-1.641-2.857 0-2.395 1.834-3.572 4.267-3.572a8.37 8.37 0 0 1 1.409.115l4.287-.25v1.602c-.425 0-1.487-.077-2.22-.135M267.07 32.784v7.666h-1.932V30.313h1.757v.985c1.236-.81 2.279-1.062 4.074-1.062v1.757c-1.93 0-2.877.077-3.9.791M276.26 31.471c-1.719 0-2.626 1.178-2.685 3.167h5.407c-.039-1.834-.695-3.167-2.722-3.167zm-2.704 4.538c.329 3.129 2.588 3.225 4.055 3.225.927 0 1.777-.116 2.761-.29v1.37c-1.216.31-2.259.368-3.379.368-3.572 0-5.541-2.047-5.541-5.503 0-3.572 2.201-5.078 4.808-5.078 3.494 0 4.904 2.143 4.904 5.406v.502h-7.608zM287.227 31.471c-1.428 0-2.24.811-2.24 2.105 0 1.545.927 2.22 2.24 2.22 1.545 0 2.337-.656 2.337-2.22 0-1.351-.927-2.105-2.337-2.105m3.476-.038c.522.502.869 1.255.869 2.22 0 1.526-.85 3.573-4.364 3.573-.348 0-.714-.039-1.062-.097-.444.29-1.062.753-1.062 1.313 0 .309.27.502 1.004.599 1.989.212 6.623-.715 6.623 2.433 0 2.22-2.201 3.224-5.31 3.224-1.216 0-2.49-.058-3.881-.347v-1.468c1.1.193 2.49.406 3.553.406 2.066 0 3.591-.657 3.591-1.526 0-.965-1.487-.946-2.162-.965h-1.371c-2.008.02-3.978-.155-3.978-1.97 0-.965.502-1.621 1.448-2.298-.695-.386-1.64-1.158-1.64-2.857 0-2.395 1.834-3.572 4.266-3.572a8.37 8.37 0 0 1 1.41.115l4.286-.25v1.602c-.424 0-1.486-.077-2.22-.135M294.527 40.45h1.93V30.313h-1.93V40.45zm0-12.609h1.93v-1.873h-1.93v1.873zM302.27 40.662c-1.198 0-2.337-.154-3.437-.367v-1.583c1.178.251 2.182.464 3.186.464 1.429 0 2.857-.348 2.857-1.487 0-1.371-2.066-1.487-3.07-1.738-1.41-.367-3.03-.907-3.03-2.877 0-2.317 2.142-2.973 4.17-2.973 1.448 0 2.471.173 3.263.29v1.525c-.946-.174-1.95-.328-2.916-.328-.985 0-2.568.154-2.568 1.351 0 2.201 6.16.618 6.16 4.5 0 1.987-1.622 3.223-4.615 3.223M311.441 31.742v6.005c0 1.139.348 1.216 1.313 1.216h1.526v1.487h-1.7c-2.046 0-3.07-.135-3.07-2.51v-6.198h-2.124v-1.429h2.124V27.32a93.53 93.53 0 0 1 1.931-.657v3.65h2.916v1.429h-2.916zM318.393 32.784v7.666h-1.931V30.313h1.757v.985c1.235-.81 2.279-1.062 4.074-1.062v1.757c-1.93 0-2.877.077-3.9.791M327.583 31.471c-1.718 0-2.626 1.178-2.684 3.167h5.407c-.04-1.834-.696-3.167-2.723-3.167zm-2.703 4.538c.328 3.129 2.587 3.225 4.054 3.225.927 0 1.777-.116 2.761-.29v1.37c-1.216.31-2.258.368-3.379.368-3.572 0-5.541-2.047-5.541-5.503 0-3.572 2.201-5.078 4.808-5.078 3.495 0 4.905 2.143 4.905 5.406v.502h-7.608zM337.334 31.742v6.005c0 1.139.348 1.216 1.313 1.216h1.526v1.487h-1.7c-2.047 0-3.07-.135-3.07-2.51v-6.198h-2.124v-1.429h2.124V27.32a92.582 92.582 0 0 1 1.931-.657v3.65h2.916v1.429h-2.916z" fill="#4F4C4C" mask="url(#b)"/></g></g></svg>